<?xml version="1.0" standalone="no"?>
<!DOCTYPE svg PUBLIC "-//W3C//DTD SVG 20010904//EN"
 "http://www.w3.org/TR/2001/REC-SVG-20010904/DTD/svg10.dtd">
<svg version="1.0" xmlns="http://www.w3.org/2000/svg"
 width="700.000000pt" height="700.000000pt" viewBox="0 0 700.000000 700.000000"
 preserveAspectRatio="xMidYMid meet">
<metadata>
Created by potrace 1.14, written by Peter Selinger 2001-2017
</metadata>
<g transform="translate(0.000000,700.000000) scale(0.100000,-0.100000)"
fill="#000000" stroke="none">
<path d="M855 6989 c-264 -38 -532 -206 -682 -429 -79 -118 -143 -283 -162
-424 -15 -109 -15 -5163 0 -5272 61 -437 416 -792 853 -853 109 -15 5163 -15
5272 0 141 19 306 83 424 162 227 153 391 417 429 691 15 109 15 5163 0 5272
-38 276 -201 537 -432 693 -73 49 -221 116 -317 143 l-85 23 -2620 1 c-1441 1
-2647 -2 -2680 -7z m3435 -1874 l795 795 140 -140 140 -140 -938 -938 -937
-937 -935 935 -935 935 142 142 143 143 795 -795 795 -795 795 795z m1465 115
l140 -140 -795 -795 -795 -795 795 -795 795 -795 -140 -140 -141 -141 -929
931 c-512 512 -930 935 -930 940 0 10 1843 1870 1854 1870 3 0 69 -63 146
-140z m-1325 -2925 l935 -935 -140 -140 -140 -140 -795 795 -795 795 -795
-795 -795 -795 -142 142 -143 143 932 932 c513 513 935 933 938 933 3 0 426
-421 940 -935z"/>
</g>
</svg>
